PathFileType	4	(X/Y/Z)	C:/Users/opensim2020/Desktop/walking_exp_matlab/subject03_walking04_static.trc	
DataRate	CameraRate	NumFrames	NumMarkers	Units	OrigDataRate	OrigDataStartFrame	OrigNumFrames	
100.00	100.00	7	51	mm	100.00	207	196	
Frame#	Time	LFHD			RFHD			LBHD			RBHD			C7			T10			CLAV			STRN			RBAK			LSHO			LUPA			LELB			LFRM			LWRA			LWRB			LFIN			RSHO			RUPA			RELB			RFRM			RWRA			RWRB			RFIN			LASI			RASI			LPSI			RPSI			LTHI			LKNE			LTIB			LANK			LHEE			LTOE			RTHI			RKNE			RTIB			RANK			RHEE			RTOE			*39			*40			*41			*42			*43			*44			*45			*46			*47			*48			*49			*50			
		X1	Y1	Z1	X2	Y2	Z2	X3	Y3	Z3	X4	Y4	Z4	X5	Y5	Z5	X6	Y6	Z6	X7	Y7	Z7	X8	Y8	Z8	X9	Y9	Z9	X10	Y10	Z10	X11	Y11	Z11	X12	Y12	Z12	X13	Y13	Z13	X14	Y14	Z14	X15	Y15	Z15	X16	Y16	Z16	X17	Y17	Z17	X18	Y18	Z18	X19	Y19	Z19	X20	Y20	Z20	X21	Y21	Z21	X22	Y22	Z22	X23	Y23	Z23	X24	Y24	Z24	X25	Y25	Z25	X26	Y26	Z26	X27	Y27	Z27	X28	Y28	Z28	X29	Y29	Z29	X30	Y30	Z30	X31	Y31	Z31	X32	Y32	Z32	X33	Y33	Z33	X34	Y34	Z34	X35	Y35	Z35	X36	Y36	Z36	X37	Y37	Z37	X38	Y38	Z38	X39	Y39	Z39	X40	Y40	Z40	X41	Y41	Z41	X42	Y42	Z42	X43	Y43	Z43	X44	Y44	Z44	X45	Y45	Z45	X46	Y46	Z46	X47	Y47	Z47	X48	Y48	Z48	X49	Y49	Z49	X50	Y50	Z50	X51	Y51	Z51	

25	0.240	357.44226	-664.66156	1633.02502	390.29935	-535.51068	1642.60950	484.63223	-689.26721	1592.25671	512.37915	-561.50659	1602.06128	527.36688	-623.94269	1427.39282	545.26874	-615.73651	1115.36023	398.50134	-609.29297	1363.16309	344.20404	-608.12592	1199.16760	577.55640	-532.75488	1248.99402	449.04993	-768.30237	1400.10022	464.47086	-853.82367	1211.14270	461.36829	-882.91284	1091.56079	431.88495	-904.85327	966.16760	400.32767	-896.39923	847.89850	436.76205	-938.04010	855.84741	414.05963	-942.51654	773.80890	478.11343	-459.92859	1391.37720	484.92200	-363.30573	1181.76160	469.29285	-328.72958	1074.70117	447.89673	-299.59378	941.80579	405.06921	-309.63245	845.46405	447.25104	-274.48547	844.02844	419.37216	-268.40732	773.91162	388.92041	-718.59448	947.18695	401.70465	-484.90610	947.94714	552.76617	-679.83759	979.24286	557.88055	-530.62793	987.06494	456.19247	-771.65594	647.72510	462.44427	-735.26776	470.12677	518.33832	-754.22821	285.49777	539.35590	-729.66406	73.80836	580.76953	-696.97144	36.75667	387.03839	-709.15466	34.51352	473.98520	-439.28052	654.09064	467.34314	-472.79999	474.49585	519.84186	-461.83017	292.74521	547.10834	-500.96835	75.99696	587.53522	-552.82751	41.79204	404.96542	-500.40707	36.43362	447.80957	-638.44885	1699.05542																																	 
26	0.250	357.36166	-664.68085	1633.03088	390.13620	-535.49420	1642.60437	484.56100	-689.22266	1592.29199	512.22150	-561.45691	1602.06445	527.27704	-623.90833	1427.41418	545.24481	-615.64307	1115.37732	398.40262	-609.29791	1363.17554	344.15585	-608.15442	1199.15259	577.48572	-532.69366	1249.04358	448.95633	-768.27557	1400.09216	464.40854	-853.76416	1211.13306	461.38400	-882.85114	1091.56604	431.91385	-904.67102	966.12140	400.40280	-896.20038	847.84247	436.87128	-937.80664	855.78235	414.26920	-942.41217	773.74353	477.99911	-459.93393	1391.39990	484.78680	-363.31503	1181.76025	469.22192	-328.78149	1074.70056	447.82629	-299.70813	941.80402	404.98325	-309.81128	845.48761	447.09470	-274.61154	844.00586	419.22021	-268.55106	773.85083	388.99182	-718.62970	947.22601	401.71469	-484.92447	947.95166	552.79785	-679.71765	979.25385	557.89856	-530.57111	987.09802	456.31876	-771.71204	647.74994	462.45645	-735.22363	470.10266	518.35504	-754.22864	285.50766	539.34918	-729.74561	73.80092	580.74573	-696.96875	36.78082	387.02670	-709.16589	34.50649	473.95493	-439.25208	654.08649	467.29282	-472.74741	474.53821	519.82013	-461.81796	292.69925	547.06134	-500.97702	75.99834	587.37292	-552.49091	41.68351	404.95151	-500.41080	36.46042	447.70645	-638.41370	1699.02148																																	 
27	0.260	357.27029	-664.72211	1633.02161	389.96997	-535.46411	1642.62927	484.47998	-689.19202	1592.28809	512.09644	-561.43042	1602.05774	527.17133	-623.88879	1427.44592	545.27704	-615.62665	1115.42261	398.32138	-609.32635	1363.16455	344.08502	-608.16754	1199.15332	577.40619	-532.66425	1249.16064	448.90726	-768.33099	1400.13721	464.33722	-853.69733	1211.11365	461.31403	-882.74774	1091.50757	431.95529	-904.51947	966.06165	400.47113	-896.01227	847.77490	436.86713	-937.71539	855.74225	414.36386	-942.19727	773.67664	477.85611	-459.93362	1391.49146	484.67505	-363.30655	1181.79272	469.09830	-328.82709	1074.68689	447.69482	-299.77377	941.81207	404.84378	-309.93222	845.47528	446.94403	-274.72342	844.01062	419.06879	-268.79102	773.85400	389.07697	-718.64624	947.23773	401.73608	-484.92029	947.93732	552.94470	-679.77069	979.22839	557.92010	-530.51935	987.09216	456.36349	-771.70264	647.74677	462.48831	-735.24634	470.09497	518.35242	-754.19855	285.49756	539.35242	-729.71411	73.79391	580.73535	-697.00714	36.79064	387.01541	-709.14893	34.49662	473.88434	-439.22668	654.06104	467.24576	-472.74612	474.52539	519.80505	-461.81412	292.70709	547.08716	-500.97369	76.00618	587.50928	-552.77667	41.79134	404.93857	-500.41895	36.45610	447.58456	-638.31287	1699.00000																																	 
28	0.270	357.15918	-664.72614	1633.01465	389.79037	-535.48572	1642.60913	484.38669	-689.14160	1592.29956	511.92960	-561.37109	1602.05115	527.07941	-623.86688	1427.45679	545.30756	-615.58905	1115.44714	398.22327	-609.34094	1363.14282	344.00555	-608.16901	1199.11426	577.33716	-532.60785	1249.18347	448.83463	-768.29596	1400.06909	464.26892	-853.66583	1211.08032	461.36682	-882.58057	1091.44922	432.01257	-904.36279	966.01447	400.53146	-895.85040	847.74139	436.93466	-937.55914	855.70343	414.39859	-941.86676	773.56934	477.73129	-459.92609	1391.44336	484.56238	-363.32648	1181.78210	468.99655	-328.85345	1074.67639	447.58121	-299.87094	941.77435	404.72989	-310.07181	845.46765	446.81128	-274.85754	843.97748	418.93018	-269.01450	773.76910	389.15848	-718.63837	947.22424	401.76926	-484.95367	947.95105	553.05530	-679.80182	979.31439	557.90881	-530.50470	987.10309	456.43176	-771.71161	647.75562	462.47849	-735.18945	470.08731	518.36102	-754.20404	285.49017	539.34796	-729.69885	73.78822	580.74744	-696.99396	36.77227	387.01935	-709.15985	34.49872	473.84634	-439.23029	654.04706	467.24237	-472.73074	474.51575	519.79956	-461.77890	292.74210	547.09247	-500.99396	76.01335	587.41278	-552.51874	41.68893	404.95035	-500.41241	36.45084	447.48706	-638.28503	1699.01160																																	 
29	0.280	357.06531	-664.75818	1633.01001	389.63715	-535.48566	1642.60706	484.30276	-689.10980	1592.30981	511.76660	-561.34222	1602.05127	526.97345	-623.82739	1427.46021	545.36676	-615.61481	1115.52429	398.12772	-609.35272	1363.14868	343.90826	-608.18463	1199.10596	577.21912	-532.50854	1249.21655	448.76334	-768.29205	1400.04541	464.22006	-853.59705	1211.04919	461.35770	-882.55969	1091.41711	432.07172	-904.24475	965.96674	400.62296	-895.68903	847.70221	437.00656	-937.41455	855.65485	414.51852	-941.77777	773.52869	477.59229	-459.88989	1391.47278	484.47714	-363.33417	1181.78564	468.93890	-328.88928	1074.65259	447.51080	-299.92984	941.78223	404.63849	-310.22144	845.45471	446.68607	-274.93802	843.95508	418.77451	-269.20837	773.73590	389.22391	-718.65552	947.23651	401.77179	-484.96896	947.95605	553.00293	-679.60498	979.20886	557.89246	-530.49731	987.09802	456.49734	-771.72076	647.76868	462.50717	-735.22852	470.09781	518.37775	-754.19427	285.48010	539.34961	-729.68622	73.81750	580.74255	-696.99060	36.80412	387.03299	-709.17627	34.50765	473.74072	-439.21143	654.02924	467.25647	-472.68472	474.53424	519.80945	-461.78876	292.73767	547.08240	-500.95557	76.03014	587.54077	-552.77112	41.78763	404.95291	-500.41000	36.43640	447.36481	-638.32361	1699.07239																																	 
30	0.290	356.96982	-664.77887	1633.00635	389.51443	-535.50238	1642.61853	484.22223	-689.09857	1592.31409	511.59387	-561.30597	1602.02734	526.86121	-623.79974	1427.48071	545.34894	-615.59650	1115.54968	398.00671	-609.35803	1363.13452	343.86975	-608.18945	1199.07251	577.14624	-532.49792	1249.24170	448.71332	-768.30573	1400.01892	464.22345	-853.54089	1211.01465	461.38568	-882.52026	1091.40698	432.07489	-904.09253	965.88129	400.66907	-895.49591	847.62103	437.04520	-937.27881	855.60114	414.52985	-941.44641	773.45715	477.48074	-459.87210	1391.48645	484.37973	-363.33759	1181.77686	468.85217	-328.90378	1074.66956	447.39044	-300.01422	941.78394	404.54916	-310.35617	845.45178	446.61484	-275.08624	843.89282	418.71054	-269.32971	773.71320	389.27768	-718.65680	947.20831	401.75290	-484.97684	947.93396	553.12549	-679.69189	979.27448	557.89917	-530.46143	987.11102	456.52982	-771.72369	647.76196	462.54422	-735.25598	470.10483	518.37640	-754.19830	285.49445	539.33673	-729.79004	73.84570	580.71722	-696.97607	36.77251	387.02332	-709.18384	34.49687	473.72672	-439.24771	654.01617	467.26233	-472.70432	474.54404	519.81165	-461.77274	292.74606	547.15314	-500.97559	75.99181	587.37732	-552.48810	41.68401	404.94098	-500.41055	36.43717	447.22742	-638.26379	1699.04321																																	 
31	0.300	356.85995	-664.81787	1633.00061	389.32263	-535.54938	1642.60388	484.12903	-689.07782	1592.29907	511.47000	-561.28381	1602.03967	526.75031	-623.77820	1427.50854	545.34259	-615.54535	1115.59424	397.91660	-609.34003	1363.10229	343.82962	-608.23334	1199.03052	577.08307	-532.44263	1249.30444	448.49603	-768.18665	1400.02161	464.25769	-853.50861	1210.99805	461.45474	-882.46564	1091.35229	432.12708	-904.02350	965.84760	400.73947	-895.40692	847.56598	437.07971	-937.15247	855.55347	414.54349	-941.29065	773.39764	477.32211	-459.82465	1391.51245	484.29028	-363.31607	1181.80615	468.78897	-328.93668	1074.61951	447.35989	-300.08789	941.71606	404.49149	-310.43872	845.42316	446.52051	-275.20746	843.86737	418.62149	-269.43417	773.66083	389.32657	-718.68237	947.19861	401.72269	-484.97614	947.94189	553.14276	-679.61755	979.21667	557.87573	-530.49225	987.12146	456.58722	-771.77161	647.75409	462.54102	-735.23090	470.10190	518.37866	-754.24139	285.49515	539.34247	-729.70941	73.83933	580.73212	-697.01935	36.80584	387.01273	-709.18542	34.49238	473.67307	-439.26501	654.02570	467.27930	-472.68524	474.53555	519.83215	-461.77835	292.72437	547.11102	-500.96851	75.99562	587.39886	-552.47705	41.66424	404.92969	-500.39700	36.42557	447.12915	-638.27142	1699.03784																																	 
